# xmcd
#
# Track frame offsets:
#	150
#	3221
#	12654
#	26584
#	40887
#	53717
#	64797
#	89752
#	117947
#	135273
#	144682
#	159616
#	168011
#
# Disc length: 2460 seconds
#
# Revision: 1
# Processed by: cddbd v1.5.2PL0 Copyright (c) Steve Scherf et al.
# Submitted via: audiograbber 1.83.01
#
DISCID=a6099a0d
DTITLE=The Greatest Country Music Recordings Of All Time - Record 57
DYEAR=1900
DGENRE=
TTITLE0=Minnie Pearl - Introduction-Howdy etc..
TTITLE1=Minnie Pearl - Good Morning This Morning
TTITLE2=Lonzo and Oscar - I'm My Own Grandpa
TTITLE3=Simon Crum - Country Music Is Here To Stay
TTITLE4=Minnie Pearl - How To Catch A Man (On The Minnie Pearl Plan)
TTITLE5=Little Jimmie Dickens - May The Bird Of Paradise Fly Up Your Nose
TTITLE6=Homer and Jethro - That Hound Dog In The Window
TTITLE7=Skillet Lickers - Hog Killin' Day
TTITLE8=Ray Stevens - Ahab, The Arab
TTITLE9=Roger Miller - Chug-A-Lug
TTITLE10=Ben Colder - Almost Persuaded #2
TTITLE11=Roger Miller - Dang Me
TTITLE12=Johnny Cash - A Boy Named Sue
EXTD=
EXTT0=
EXTT1=
EXTT2=
EXTT3=
EXTT4=
EXTT5=
EXTT6=
EXTT7=
EXTT8=
EXTT9=
EXTT10=
EXTT11=
EXTT12=
PLAYORDER=
